TITLE ""
FILE "1Q_j_2207-2220.mp3" MP3
  TRACK 01 AUDIO
    TITLE "1Q_j_2207-2220_01"
    INDEX 01 00:00:00
  TRACK 02 AUDIO
    TITLE "1Q_j_2207-2220_02"
    INDEX 01 00:00:10
  TRACK 03 AUDIO
    TITLE "1Q_j_2207-2220_03"
    INDEX 01 00:01:35
  TRACK 04 AUDIO
    TITLE "1Q_j_2207-2220_04"
    INDEX 01 00:01:43
  TRACK 05 AUDIO
    TITLE "1Q_j_2207-2220_05"
    INDEX 01 00:04:63
  TRACK 06 AUDIO
    TITLE "1Q_j_2207-2220_06"
    INDEX 01 00:04:71
  TRACK 07 AUDIO
    TITLE "1Q_j_2207-2220_07"
    INDEX 01 00:09:45
  TRACK 08 AUDIO
    TITLE "1Q_j_2207-2220_08"
    INDEX 01 00:10:19
  TRACK 09 AUDIO
    TITLE "1Q_j_2207-2220_09"
    INDEX 01 00:12:04
  TRACK 10 AUDIO
    TITLE "1Q_j_2207-2220_10"
    INDEX 01 00:12:12
  TRACK 11 AUDIO
    TITLE "1Q_j_2207-2220_11"
    INDEX 01 00:14:38
  TRACK 12 AUDIO
    TITLE "1Q_j_2207-2220_12"
    INDEX 01 00:14:44
  TRACK 13 AUDIO
    TITLE "1Q_j_2207-2220_13"
    INDEX 01 00:19:06
  TRACK 14 AUDIO
    TITLE "1Q_j_2207-2220_14"
    INDEX 01 00:19:51
  TRACK 15 AUDIO
    TITLE "1Q_j_2207-2220_15"
    INDEX 01 00:21:12
  TRACK 16 AUDIO
    TITLE "1Q_j_2207-2220_16"
    INDEX 01 00:21:18
  TRACK 17 AUDIO
    TITLE "1Q_j_2207-2220_17"
    INDEX 01 00:23:27
  TRACK 18 AUDIO
    TITLE "1Q_j_2207-2220_18"
    INDEX 01 00:23:35
  TRACK 19 AUDIO
    TITLE "1Q_j_2207-2220_19"
    INDEX 01 00:28:58
  TRACK 20 AUDIO
    TITLE "1Q_j_2207-2220_20"
    INDEX 01 00:29:28
  TRACK 21 AUDIO
    TITLE "1Q_j_2207-2220_21"
    INDEX 01 00:30:56
  TRACK 22 AUDIO
    TITLE "1Q_j_2207-2220_22"
    INDEX 01 00:30:64
  TRACK 23 AUDIO
    TITLE "1Q_j_2207-2220_23"
    INDEX 01 00:33:23
  TRACK 24 AUDIO
    TITLE "1Q_j_2207-2220_24"
    INDEX 01 00:33:31
  TRACK 25 AUDIO
    TITLE "1Q_j_2207-2220_25"
    INDEX 01 00:38:46
  TRACK 26 AUDIO
    TITLE "1Q_j_2207-2220_26"
    INDEX 01 00:39:18
  TRACK 27 AUDIO
    TITLE "1Q_j_2207-2220_27"
    INDEX 01 00:40:41
  TRACK 28 AUDIO
    TITLE "1Q_j_2207-2220_28"
    INDEX 01 00:40:49
  TRACK 29 AUDIO
    TITLE "1Q_j_2207-2220_29"
    INDEX 01 00:42:50
  TRACK 30 AUDIO
    TITLE "1Q_j_2207-2220_30"
    INDEX 01 00:42:56
  TRACK 31 AUDIO
    TITLE "1Q_j_2207-2220_31"
    INDEX 01 00:46:20
  TRACK 32 AUDIO
    TITLE "1Q_j_2207-2220_32"
    INDEX 01 00:46:63
  TRACK 33 AUDIO
    TITLE "1Q_j_2207-2220_33"
    INDEX 01 00:48:07
  TRACK 34 AUDIO
    TITLE "1Q_j_2207-2220_34"
    INDEX 01 00:48:15
  TRACK 35 AUDIO
    TITLE "1Q_j_2207-2220_35"
    INDEX 01 00:50:42
  TRACK 36 AUDIO
    TITLE "1Q_j_2207-2220_36"
    INDEX 01 00:50:49
  TRACK 37 AUDIO
    TITLE "1Q_j_2207-2220_37"
    INDEX 01 00:57:40
  TRACK 38 AUDIO
    TITLE "1Q_j_2207-2220_38"
    INDEX 01 00:58:10
  TRACK 39 AUDIO
    TITLE "1Q_j_2207-2220_39"
    INDEX 01 00:59:52
  TRACK 40 AUDIO
    TITLE "1Q_j_2207-2220_40"
    INDEX 01 00:59:64
  TRACK 41 AUDIO
    TITLE "1Q_j_2207-2220_41"
    INDEX 01 01:03:07
  TRACK 42 AUDIO
    TITLE "1Q_j_2207-2220_42"
    INDEX 01 01:03:13
  TRACK 43 AUDIO
    TITLE "1Q_j_2207-2220_43"
    INDEX 01 01:08:06
  TRACK 44 AUDIO
    TITLE "1Q_j_2207-2220_44"
    INDEX 01 01:08:55
  TRACK 45 AUDIO
    TITLE "1Q_j_2207-2220_45"
    INDEX 01 01:10:15
  TRACK 46 AUDIO
    TITLE "1Q_j_2207-2220_46"
    INDEX 01 01:10:25
  TRACK 47 AUDIO
    TITLE "1Q_j_2207-2220_47"
    INDEX 01 01:12:18
  TRACK 48 AUDIO
    TITLE "1Q_j_2207-2220_48"
    INDEX 01 01:12:25
  TRACK 49 AUDIO
    TITLE "1Q_j_2207-2220_49"
    INDEX 01 01:17:72
  TRACK 50 AUDIO
    TITLE "1Q_j_2207-2220_50"
    INDEX 01 01:18:44
  TRACK 51 AUDIO
    TITLE "1Q_j_2207-2220_51"
    INDEX 01 01:20:00
  TRACK 52 AUDIO
    TITLE "1Q_j_2207-2220_52"
    INDEX 01 01:20:11
  TRACK 53 AUDIO
    TITLE "1Q_j_2207-2220_53"
    INDEX 01 01:21:21
  TRACK 54 AUDIO
    TITLE "1Q_j_2207-2220_54"
    INDEX 01 01:21:28
  TRACK 55 AUDIO
    TITLE "1Q_j_2207-2220_55"
    INDEX 01 01:27:17
  TRACK 56 AUDIO
    TITLE "1Q_j_2207-2220_56"
    INDEX 01 01:27:62
  TRACK 57 AUDIO
    TITLE "1Q_j_2207-2220_57"
    INDEX 01 01:29:20
  TRACK 58 AUDIO
    TITLE "1Q_j_2207-2220_58"
    INDEX 01 01:29:26
  TRACK 59 AUDIO
    TITLE "1Q_j_2207-2220_59"
    INDEX 01 01:31:64
  TRACK 60 AUDIO
    TITLE "1Q_j_2207-2220_60"
    INDEX 01 01:31:72
  TRACK 61 AUDIO
    TITLE "1Q_j_2207-2220_61"
    INDEX 01 01:37:39
  TRACK 62 AUDIO
    TITLE "1Q_j_2207-2220_62"
    INDEX 01 01:38:09
  TRACK 63 AUDIO
    TITLE "1Q_j_2207-2220_63"
    INDEX 01 01:39:30
  TRACK 64 AUDIO
    TITLE "1Q_j_2207-2220_64"
    INDEX 01 01:39:38
  TRACK 65 AUDIO
    TITLE "1Q_j_2207-2220_65"
    INDEX 01 01:42:21
  TRACK 66 AUDIO
    TITLE "1Q_j_2207-2220_66"
    INDEX 01 01:42:31
  TRACK 67 AUDIO
    TITLE "1Q_j_2207-2220_67"
    INDEX 01 01:47:08
  TRACK 68 AUDIO
    TITLE "1Q_j_2207-2220_68"
    INDEX 01 01:47:55
  TRACK 69 AUDIO
    TITLE "1Q_j_2207-2220_69"
    INDEX 01 01:48:74
  TRACK 70 AUDIO
    TITLE "1Q_j_2207-2220_70"
    INDEX 01 01:49:07
  TRACK 71 AUDIO
    TITLE "1Q_j_2207-2220_71"
    INDEX 01 01:50:69
  TRACK 72 AUDIO
    TITLE "1Q_j_2207-2220_72"
    INDEX 01 01:51:02
  TRACK 73 AUDIO
    TITLE "1Q_j_2207-2220_73"
    INDEX 01 01:57:71
  TRACK 74 AUDIO
    TITLE "1Q_j_2207-2220_74"
    INDEX 01 01:58:43
  TRACK 75 AUDIO
    TITLE "1Q_j_2207-2220_75"
    INDEX 01 01:59:37
  TRACK 76 AUDIO
    TITLE "1Q_j_2207-2220_76"
    INDEX 01 01:59:54
  TRACK 77 AUDIO
    TITLE "1Q_j_2207-2220_77"
    INDEX 01 02:01:71
  TRACK 78 AUDIO
    TITLE "1Q_j_2207-2220_78"
    INDEX 01 02:02:04
  TRACK 79 AUDIO
    TITLE "1Q_j_2207-2220_79"
    INDEX 01 02:08:30
  TRACK 80 AUDIO
    TITLE "1Q_j_2207-2220_80"
    INDEX 01 02:09:00
  TRACK 81 AUDIO
    TITLE "1Q_j_2207-2220_81"
    INDEX 01 02:10:15
  TRACK 82 AUDIO
    TITLE "1Q_j_2207-2220_82"
    INDEX 01 02:10:23
  TRACK 83 AUDIO
    TITLE "1Q_j_2207-2220_83"
    INDEX 01 02:12:18
  TRACK 84 AUDIO
    TITLE "1Q_j_2207-2220_84"
    INDEX 01 02:12:26
  TRACK 85 AUDIO
    TITLE "1Q_j_2207-2220_85"
    INDEX 01 02:16:43
